# xmcd
#
# Track frame offsets:
#	150
#	12855
#	28512
#	39635
#	55297
#	64987
#	76237
#	88602
#	98285
#	111985
#	126087
#	141970
#	155427
#	168760
#	183367
#
# Disc length: 2636 seconds
#
# Revision: 0
# Processed by: cddbd v1.5.2PL0 Copyright (c) Steve Scherf et al.
# Submitted via: dBpowerAMP V4.0
#
DISCID=b90a4a0f
DTITLE=Jan Rasmussen - Bedre Sent End Aldrig 4
DYEAR=1998
DGENRE=Country
TTITLE0=Øjne der fanged' mig
TTITLE1=Endnu en dejlig dag
TTITLE2=Kære Radiovært
TTITLE3=Lille fugl
TTITLE4=Vårens første blomst
TTITLE5=Kryds i din kalender
TTITLE6=Når alt er forbi
TTITLE7=Mindes du
TTITLE8=Til en anden by
TTITLE9=Di goa gamla då
TTITLE10=Kærlighed og varme
TTITLE11=Et lille råd
TTITLE12=Ta' med til Hawaii
TTITLE13=Find dig en ven
TTITLE14=Var det kun en leg
EXTD=Jan Rasmussen - Bedre Sent End Aldrig 4
EXTT0=
EXTT1=
EXTT2=
EXTT3=
EXTT4=
EXTT5=
EXTT6=
EXTT7=
EXTT8=
EXTT9=
EXTT10=
EXTT11=
EXTT12=
EXTT13=
EXTT14=
PLAYORDER=
